PathFileType	4	(X/Y/Z)	12_1_29_p1_0-249_filt_butterworth.trc
DataRate	CameraRate	NumFrames	NumMarkers	Units	OrigDataRate	OrigDataStartFrame	OrigNumFrames
57.0	57.0	6	27	m	57.0	62	249
Frame#	Time	RHip			RKnee			RAnkle			RBigToe			RSmallToe			RHeel			LHip			LKnee			LAnkle			LBigToe			LSmallToe			LHeel			Neck			Head			Nose			RShoulder			RElbow			RWrist			RThumb			RIndex			RPinky			LShoulder			LElbow			LWrist			LThumb			LIndex			LPinky			
		X1	Y1	Z1	X2	Y2	Z2	X3	Y3	Z3	X4	Y4	Z4	X5	Y5	Z5	X6	Y6	Z6	X7	Y7	Z7	X8	Y8	Z8	X9	Y9	Z9	X10	Y10	Z10	X11	Y11	Z11	X12	Y12	Z12	X13	Y13	Z13	X14	Y14	Z14	X15	Y15	Z15	X16	Y16	Z16	X17	Y17	Z17	X18	Y18	Z18	X19	Y19	Z19	X20	Y20	Z20	X21	Y21	Z21	X22	Y22	Z22	X23	Y23	Z23	X24	Y24	Z24	X25	Y25	Z25	X26	Y26	Z26	X27	Y27	Z27	
62	1.087719298245614	0.4498941385294967	0.4682951242519515	1.0411673181428978	0.4854869126729612	0.5428758146999728	1.5049026177037452	0.501526661795118	0.5954349574227594	1.9301169645134002	0.47852925109796124	0.3811733034519784	1.9324634217624042	0.538391443414108	0.40265262475226216	1.9133071854685495	0.4833894765137027	0.6527726387978657	2.0132053627604622	0.22028737688451044	0.5296531817794259	1.0900417548972552	0.26865928712180537	0.5476420166900737	1.5357998690194408	0.3298061170728575	0.6001506666079274	1.9598134939054372	0.33266378190219137	0.3820038630277569	1.946917922594219	0.26479623143736924	0.42515078979742105	1.94748179880003	0.342786408333406	0.6477907030024386	2.020397989054122	0.24775352833086334	0.5568250537240237	0.42708218952472565	0.23415625238120857	0.4864091596198701	0.1729680793546027	0.24923337461658984	0.44542158992214814	0.2945623570095509	0.44147441649431507	0.552604826703996	0.5282028485110276	0.5099034818275711	0.5012975168393347	0.7981131488670221	0.5451216484705343	0.41852127654730975	1.0536445537667192	0.4991397721938301	0.4231968329753632	1.206442913758608	0.5183626647505809	0.4093809812932116	1.2051251302959871	0.5722608863473864	0.4076591133834994	1.195664616031843	0.101017663463392	0.5687339014097847	0.5513546673218919	0.06627502846812579	0.5369571278514046	0.8490556179741247	0.11902152781118334	0.4674454837404753	1.1137101663401552	0.1800846182909447	0.45813432563723305	1.2044778492282953	0.15990667483043136	0.4302724470951436	1.2106533551306613	0.104470274389244	0.48845744195286667	1.2419026271430929
63	1.105263157894737	0.4498695188550028	0.46840259513918137	1.0407827379918448	0.48552667818675405	0.5426881392082812	1.504774885658472	0.5014959538773898	0.5953149776631879	1.9300652115659322	0.47723996023394033	0.3804373668463487	1.9321351175005765	0.5383104374404788	0.40255631637509104	1.9132381997511316	0.4834113867214618	0.6527323116428896	2.0132040293189837	0.22045591381759674	0.5296436893243938	1.0900596557661104	0.2686285869671703	0.5475837435178941	1.5357958547125903	0.32978425563388997	0.6000895483626736	1.959763386806141	0.3326686632442689	0.38208411185744384	1.947008698658733	0.26413760524471774	0.4269719513366578	1.9478734495530303	0.3423374023864084	0.648306020422223	2.018607492728515	0.24778742984129667	0.5567342845077313	0.42705980456092807	0.23420741193738448	0.48642287658154315	0.17296028110006104	0.24922244060705867	0.4453727997518342	0.2945535033255581	0.44169176003347876	0.5523512464858973	0.5294788525215702	0.509594942700006	0.50128332805882	0.7982273548441117	0.5461270386371931	0.4184898525408225	1.0530193395417873	0.4996553668691647	0.4259402416580344	1.2058708021964142	0.5183778852236621	0.4094898723179567	1.2051912066536907	0.570729478898008	0.40342375960720206	1.1942073690133077	0.10100189752290148	0.568717968664233	0.5513542017125388	0.06625737012911626	0.5369624903825067	0.8489602029276768	0.11901723092259024	0.46746854003593363	1.1137249184977684	0.18014212939149835	0.45796308068375874	1.204812980373162	0.15993255590231972	0.4302675449254472	1.2106668381973682	0.10447274288043358	0.4884719148823117	1.2419220222656129
64	1.1228070175438596	0.4498483659341985	0.4684775058255241	1.0397742147640596	0.4856010132267729	0.542267274205676	1.5046161004267447	0.5013346105428467	0.5951103607290706	1.9294229113691228	0.47545367424799745	0.3794288853244214	1.9316822859736424	0.5381463006976179	0.4024298195154601	1.9131550107201467	0.4834501180467925	0.6527254369346464	2.013212610390129	0.22060251264072173	0.5296509244286715	1.090048377604754	0.2686451510916106	0.5475611403720795	1.535780930787289	0.3297471626597849	0.6001259443291908	1.9596955403151854	0.33271032280299057	0.3822116776057519	1.9472175922403354	0.263566853536213	0.4320880469290775	1.9506465305386593	0.3421282235888265	0.6488701375605344	2.017757302704707	0.2478968321335878	0.5563997831077986	0.4269935353016959	0.2342227551731905	0.4864091048976733	0.17297439103351933	0.24920632929854034	0.4453384129862062	0.2944832125367498	0.4418496355326589	0.5521610668578051	0.5303978043553772	0.508530936341135	0.5012195381496257	0.7984112528677489	0.546933383740225	0.41881230298782146	1.0515449677501196	0.5004568986416571	0.42973263310083964	1.2065478636181592	0.5183794700233012	0.40956647721527767	1.20522666605109	0.5695279141683817	0.40033285393838614	1.1931568988796388	0.10099330660994825	0.568700956687236	0.5513486291068445	0.06626087754477226	0.5370034993666846	0.8490086464645984	0.1190143333578859	0.46743736425508886	1.113718237021889	0.18030988451765145	0.4575200719980548	1.2057555243893003	0.15999462706096856	0.4302770532177703	1.2107008943931172	0.10448557945905547	0.4884753125448413	1.2419374816126652
65	1.1403508771929824	0.44985515146729077	0.46837501856050934	1.0383631754970182	0.48561868723788665	0.5421222916313825	1.5045598669751516	0.5009667275718163	0.5950354041403274	1.9279643307175078	0.4741640997008232	0.37866070443227967	1.931327863815124	0.5380751132082824	0.4023269364182169	1.913092705470825	0.4834815607893672	0.6526914550278872	2.013191274097525	0.22055249628787166	0.5296987011533928	1.0899843128406328	0.2688768363523919	0.5476466379581688	1.535746981267124	0.3297438640735842	0.6002184619176814	1.9596572633835243	0.33275319055156144	0.3823332892586113	1.947362412403383	0.2632781565086172	0.43880176637643664	1.954969516738591	0.34211349319642614	0.649163321441119	2.0175540800776166	0.24795212319996104	0.5562452872637055	0.4269601589683424	0.2342329312500428	0.48638655987923257	0.17298980519558751	0.24919929698797827	0.445322621897336	0.294442357051845	0.4419035954511342	0.5520999301041762	0.5307142163979045	0.5070402648774499	0.5008577886998271	0.7985070449274494	0.5466432520593649	0.4193281191917513	1.0508616895456835	0.5011572504040658	0.43274348724419837	1.2083138517586143	0.5183491320589259	0.40961121973963754	1.205211039716329	0.5690117315310588	0.39916250584313245	1.1928256854222334	0.10099699669734738	0.5686944557867223	0.5513431959197841	0.06626911926380666	0.5370293122710792	0.8490563670408459	0.1189993790974709	0.46735858219487475	1.1136946677254902	0.18054016234043202	0.45692974920028134	1.2070204161982352	0.16000939377850965	0.4302273911541633	1.2107412224318925	0.10452405597605632	0.4884489022735454	1.2419573234308137
66	1.1578947368421053	0.4498861005109225	0.46805769160606503	1.037222520013799	0.4853134572814528	0.5435348404792367	1.5053110774016858	0.5005579648742395	0.5954741089227852	1.9263481543814414	0.4737240263107017	0.3783457018969237	1.9311735787576976	0.5381600296301895	0.4023460654451379	1.9131096954112539	0.48347457628795504	0.6524956922603726	2.0130711011651075	0.22030622393419208	0.5297899241188251	1.0898719111596948	0.2694120664486313	0.5478859725692264	1.5357198670909058	0.32974730891576814	0.6003364491156499	1.9596111347434308	0.33277147464440093	0.38238798577510397	1.9474137468861614	0.2632133958700306	0.4432772228820999	1.9580312687137096	0.34220951727693183	0.6492439534687172	2.0170790782715473	0.24796136099911364	0.5562462405291838	0.42695649182294443	0.2342542275733739	0.4863500611560248	0.1730030229734606	0.249201944182804	0.4453133090523212	0.29445007449343763	0.4418976290145012	0.5521191837854778	0.5306770514145531	0.506177467053683	0.49925692208579653	0.7981238958525829	0.5450380013381345	0.4201325905854434	1.0511234312993505	0.5014850240837994	0.4338342915306439	1.210436130944993	0.5182904859695471	0.4096672090099468	1.2051672533536804	0.5689730210240047	0.39914119901427914	1.1929358538613093	0.10101131837786184	0.5687069218860547	0.5513381323997432	0.06626987588114307	0.5370303206689172	0.8490722659122522	0.11896697397914266	0.46726563702416596	1.1136715879192902	0.18071147741777774	0.4564742633539569	1.2079410607154455	0.15970048987378088	0.42995164790166646	1.2107564802963215	0.10458483472116534	0.4883930792331508	1.2419833633178432
67	1.1754385964912282	0.44984402346919383	0.46794500152766993	1.0368118626833893	0.48445896279872347	0.54755402236748	1.5074878402122665	0.5003729793934085	0.5964219217857477	1.925607179548354	0.473772092847516	0.37840383851851844	1.931191572217569	0.5384039717943552	0.4026255466351664	1.9132778786538491	0.48342909127040934	0.652101165960347	2.01283977113846	0.22005053492041157	0.5298925974366818	1.0897578626202304	0.27013223147936316	0.5482999696045217	1.5357732411332905	0.3297380252363205	0.6004462573710261	1.959566953802157	0.33274609386387105	0.38239721956866474	1.9474211959703949	0.2632238057053094	0.4445092541489827	1.9589697907126788	0.3423832097652227	0.6492252117099104	2.0156183379138324	0.2479571724184105	0.5562879268646279	0.42696116521327443	0.23428336843729652	0.48629722763892713	0.1730163297558783	0.24921431802158717	0.4453121556050348	0.29451303473687374	0.4418843716480865	0.5521539413314522	0.5305817767889777	0.5065648767359746	0.49547419413915644	0.7969932641404163	0.5428601126915467	0.42075840633407796	1.0518033035300625	0.501609913174364	0.43288144011756685	1.2120148307673724	0.5182471764553207	0.409728421549883	1.2052095094273896	0.569025836698673	0.3991960121021224	1.1930458494980312	0.1010291037925381	0.5687372965066004	0.5513319118021278	0.06626159193823769	0.5370152144821676	0.8490735916966812	0.11893174807228511	0.4672058280920139	1.1136648503453759	0.18077307273648013	0.45628300402529254	1.2082405011321802	0.158824174393283	0.4293318953342422	1.210705882914354	0.1046398064101161	0.4883458640444207	1.2420034447003248
